<svg width="512" height="512" viewBox="0 0 512 512" fill="none" xmlns="http://www.w3.org/2000/svg">
  <defs>
    <linearGradient id="flame" x1="128" y1="64" x2="384" y2="448" gradientUnits="userSpaceOnUse">
      <stop offset="0%" stop-color="#FF2D78"/>
      <stop offset="50%" stop-color="#7B2FBE"/>
      <stop offset="100%" stop-color="#1A6EFF"/>
    </linearGradient>
  </defs>
  <!-- Flame/Heart shape -->
  <path d="M256 480 C256 480 64 320 64 200 C64 120 128 64 200 64 C230 64 256 80 256 80 C256 80 248 48 280 24 C312 48 304 80 304 80 C350 50 400 80 430 120 C460 160 448 220 448 220 C448 320 256 480 256 480Z"
    fill="url(#flame)"/>
  <!-- Inner flame cutout -->
  <path d="M256 400 C256 400 176 310 176 240 C176 200 210 180 240 190 C252 194 256 210 256 210 C256 210 260 194 272 190 C302 180 336 200 336 240 C336 310 256 400 256 400Z"
    fill="#07070F"/>
</svg>
